<svg width="50" height="59" viewBox="0 0 50 59" fill="none" xmlns="http://www.w3.org/2000/svg">
<path d="M24.1958 10.0145C24.1958 9.48744 24.1729 9.06467 24.1273 8.74623C24.0817 8.42779 23.9847 8.09836 23.8364 7.75796C23.6881 7.41755 23.4486 7.16499 23.1177 7.00028C22.7869 6.83557 22.3591 6.75321 21.8344 6.75321C20.9446 6.75321 20.0548 7.00577 19.165 7.51089C16.7693 8.78466 14.9555 10.8765 13.7235 13.7864C12.4914 16.6964 11.8754 19.6557 11.8754 22.6644C11.8754 23.6307 11.9724 24.5696 12.1663 25.481C12.3603 26.3924 12.6626 27.2764 13.0732 28.1329C13.4839 28.9894 14.0828 29.6757 14.87 30.1918C15.6571 30.7079 16.5868 30.9659 17.6591 30.9659C17.7504 30.9659 17.9557 30.9714 18.2752 30.9824C18.5946 30.9934 18.8227 30.9934 18.9596 30.9824C19.0965 30.9714 19.279 30.9385 19.5072 30.8836C19.7353 30.8287 19.9065 30.7353 20.0205 30.6036C20.1346 30.4718 20.2145 30.2961 20.2601 30.0765C20.6251 28.3854 21.1727 25.8434 21.9028 22.4503C22.6329 19.0572 23.1805 16.5152 23.5455 14.8241C23.979 12.8256 24.1958 11.2224 24.1958 10.0145ZM50 31.6248C50 31.7785 49.9144 31.9268 49.7433 32.0695C49.5722 32.2123 49.3954 32.2836 49.2129 32.2836L49.0075 32.2507C48.5056 32.1848 47.7983 32.064 46.8857 31.8883C45.9731 31.7126 45.1517 31.5754 44.4216 31.4765C43.6915 31.3777 42.9729 31.3283 42.2656 31.3283C38.4554 31.3283 34.4513 32.3495 30.2533 34.392C29.911 34.5677 29.6715 34.8641 29.5346 35.2814C29.3064 36.072 29.0269 37.2305 28.6961 38.7568C28.3653 40.2832 28.1086 41.3867 27.9261 42.0676C27.4013 44.0661 26.6028 46.0371 25.5305 47.9807C24.4581 49.9243 23.1748 51.7307 21.6804 53.3998C20.1859 55.0689 18.4235 56.4195 16.3929 57.4517C14.3623 58.4839 12.2519 59 10.0616 59C6.98152 59 4.53457 58.0831 2.72074 56.2493C0.906913 54.4155 0 52.0052 0 49.0184C0 47.8545 0.22245 46.5697 0.667351 45.1642C1.11225 43.7586 1.83094 42.4793 2.82341 41.3264C3.81588 40.1734 4.92813 39.5969 6.16016 39.5969C7.02715 39.5969 8.39608 39.9647 10.2669 40.7004C12.1378 41.4362 13.0846 42.1115 13.1075 42.7264C13.1075 42.7484 12.9192 42.8856 12.5428 43.1382C12.1663 43.3907 11.7157 43.7312 11.191 44.1594C10.6662 44.5877 10.1415 45.0763 9.6167 45.6253C9.09195 46.1744 8.64705 46.8442 8.282 47.6348C7.91695 48.4255 7.73443 49.238 7.73443 50.0726C7.73443 50.7973 7.92266 51.3793 8.29911 51.8185C8.67556 52.2578 9.22884 52.4774 9.95893 52.4774C10.9856 52.4774 11.9553 52.1315 12.8679 51.4397C13.7805 50.7479 14.5391 49.8914 15.1437 48.8702C15.7483 47.849 16.2959 46.6905 16.7864 45.3947C17.277 44.099 17.6477 42.9241 17.8987 41.8699C18.1497 40.8157 18.3322 39.8275 18.4463 38.9051V38.6086C18.4463 38.5647 18.4063 38.5262 18.3265 38.4933C18.2466 38.4604 18.1497 38.4439 18.0356 38.4439H17.6934L17.3511 38.4604L17.1458 38.4768C11.9667 38.4768 7.95118 37.1317 5.09925 34.4414C2.24732 31.7511 0.821355 27.9242 0.821355 22.9609C0.821355 20.5891 1.21492 18.1623 2.00205 15.6806C2.78919 13.199 3.88433 10.893 5.28747 8.7627C6.69062 6.63242 8.47023 4.79313 10.6263 3.24484C12.7823 1.69654 15.1152 0.713754 17.6249 0.296482C18.8113 0.0988275 20.0205 0 21.2526 0C29.7855 0 34.052 3.9531 34.052 11.8593C34.052 14.0115 33.6185 17.0093 32.7515 20.8526C31.8846 24.6959 31.394 27.0128 31.2799 27.8035L31.3826 27.9023C33.687 26.6505 35.7689 25.6842 37.6283 25.0033C39.4878 24.3225 41.3986 23.9821 43.3607 23.9821C43.8627 23.9821 44.4673 24.1249 45.1745 24.4104C45.608 24.5641 46.5206 25.6897 47.9124 27.787C49.3041 29.8843 50 31.1636 50 31.6248Z" fill="#005AFF"/>
</svg>
